:FULLY-SPECIFIED
:FORCE-ALL-JOINTS-BE-3DOF
:DEGREES
577
root 6.98616 16.3853 -3.57502 -166.389 76.6361 -173.35
lfemur -16.7207 -3.88822 -19.5006
ltibia 44.1366 0 0
lfoot -32.3404 10.9386 0
ltoes 8.27738 0 0
rfemur -52.6444 -12.8645 14.1811
rtibia 49.4582 0 0
rfoot 10.4775 4.48723 0
rtoes -29.2361 0 0
lowerback 6.637 -0.633186 -2.33342
upperback 2.35763 -0.838215 3.37578
thorax -1.19912 -0.396767 4.8715
lowerneck -5.43042 -13.4564 -3.96473
upperneck 10.6034 -18.2292 5.03654
head 4.89991 -8.81078 0.983883
lclavicle 2.76311e-14 -8.74653e-15 0
lhumerus -39.7747 -17.7282 92.528
lradius 55.1169 0 0
lwrist 23.5346 0 0
lhand -21.3303 -3.70658 0
lfingers 7.12502 0 0
lthumb 5.05547 26.2131 0
rclavicle 2.76311e-14 -8.74653e-15 0
rhumerus 28.6651 15.104 -73.8421
rradius 133.841 0 0
rwrist -46.1452 0 0
rhand -25.766 -21.3945 0
rfingers 7.12502 0 0
rthumb 0.771761 -771.373 0
578
root 6.93653 16.3852 -3.56319 -165.559 77.5605 -172.425
lfemur -16.7655 -2.89933 -19.4627
ltibia 44.1901 -0 0
lfoot -32.2977 11.0533 0.000641566
ltoes 7.74913 -0 0
rfemur -52.1323 -12.74 14.3023
rtibia 49.6765 -0 0
rfoot 10.2376 4.81233 -0.0102182
rtoes -28.8959 0 0
lowerback 6.48453 -0.671078 -2.56143
upperback 2.32822 -0.906296 3.28589
thorax -1.1323 -0.434383 4.90771
lowerneck -5.43223 -13.4248 -3.95191
upperneck 10.7457 -18.2099 5.13992
head 4.95255 -8.79035 1.00787
lclavicle 2.76311e-14 -8.74653e-15 0
lhumerus -38.8559 -18.4043 92.1673
lradius 55.011 -0 0
lwrist 23.6129 0 0
lhand -21.1896 -3.63001 0.00141035
lfingers 7.12502 -0 0
lthumb 5.1913 26.2857 0.00129143
rclavicle 2.76311e-14 -8.74653e-15 0
rhumerus 28.3967 15.1709 -73.801
rradius 133.809 -0 0
rwrist -46.0958 0 0
rhand -25.8394 -21.3029 -0.000879966
rfingers 7.12502 -0 0
rthumb 0.7009 -51.2814 -0.00084935
579
root 6.8869 16.3852 -3.55135 -164.589 78.4816 -171.359
lfemur -16.8096 -1.91041 -19.4255
ltibia 44.2437 -0 0
lfoot -32.255 11.1681 0.0011976
ltoes 7.22087 -0 0
rfemur -51.6202 -12.6165 14.4246
rtibia 49.8948 -0 0
rfoot 9.99767 5.13748 -0.019075
rtoes -28.5557 0 0
lowerback 6.33221 -0.709576 -2.78934
upperback 2.29892 -0.974423 3.19603
thorax -1.06551 -0.472041 4.94387
lowerneck -5.43403 -13.3932 -3.9391
upperneck 10.8881 -18.1908 5.24334
head 5.0052 -8.76993 1.03187
lclavicle 2.76311e-14 -8.74653e-15 0
lhumerus -37.9289 -19.0747 91.7937
lradius 54.9051 -0 0
lwrist 23.6912 0 0
lhand -21.0489 -3.55344 0.00263268
lfingers 7.12502 -0 0
lthumb 5.32713 26.3584 0.00241069
rclavicle 2.76311e-14 -8.74653e-15 0
rhumerus 28.1283 15.2381 -73.7603
rradius 133.776 -0 0
rwrist -46.0465 0 0
rhand -25.9127 -21.2113 -0.00164261
rfingers 7.12502 -0 0
rthumb 0.630037 -51.1899 -0.00158546
580
root 6.83727 16.3851 -3.53952 -163.444 79.3984 -170.118
lfemur -16.853 -0.921465 -19.3892
ltibia 44.2972 -0 0
lfoot -32.2122 11.2828 0.00166809
ltoes 6.69262 -0 0
rfemur -51.108 -12.4942 14.548
rtibia 50.1131 -0 0
rfoot 9.75768 5.46265 -0.02657
rtoes -28.2156 0 0
lowerback 6.18005 -0.74868 -3.01715
upperback 2.26972 -1.0426 3.10621
thorax -0.998744 -0.509742 4.97999
lowerneck -5.43583 -13.3616 -3.92629
upperneck 11.0305 -18.1719 5.3468
head 5.05785 -8.74954 1.05589
lclavicle 2.76311e-14 -8.74653e-15 0
lhumerus -36.9935 -19.7393 91.4071
lradius 54.7992 -0 0
lwrist 23.7695 0 0
lhand -20.9082 -3.47687 0.00366697
lfingers 7.12502 -0 0
lthumb 5.46296 26.431 0.00335777
rclavicle 2.76311e-14 -8.74653e-15 0
rhumerus 27.8598 15.3054 -73.7198
rradius 133.744 -0 0
rwrist -45.9972 0 0
rhand -25.9861 -21.1196 -0.00228793
rfingers 7.12502 -0 0
rthumb 0.559174 -51.0983 -0.00220833
581
root 6.78763 16.3851 -3.52769 -162.073 80.3099 -168.653
lfemur -16.8958 0.0675087 -19.3536
ltibia 44.3507 -0 0
lfoot -32.1695 11.3975 0.00205304
ltoes 6.16437 -0 0
rfemur -50.5958 -12.3729 14.6724
rtibia 50.3315 -0 0
rfoot 9.51765 5.78786 -0.0327027
rtoes -27.8754 0 0
lowerback 6.02804 -0.788388 -3.24486
upperback 2.24063 -1.11081 3.01642
thorax -0.931999 -0.547484 5.01607
lowerneck -5.43762 -13.33 -3.91348
upperneck 11.1729 -18.1533 5.45029
head 5.11051 -8.72917 1.07993
lclavicle 2.76311e-14 -8.74653e-15 0
lhumerus -36.0494 -20.3978 91.0073
lradius 54.6933 -0 0
lwrist 23.8479 0 0
lhand -20.7675 -3.40029 0.00451322
lfingers 7.12502 -0 0
lthumb 5.5988 26.5036 0.00413267
rclavicle 2.76311e-14 -8.74653e-15 0
rhumerus 27.5913 15.3729 -73.6797
rradius 133.712 -0 0
rwrist -45.9478 0 0
rhand -26.0595 -21.028 -0.00281592
rfingers 7.12502 -0 0
rthumb 0.488309 -51.0068 -0.00271795
582
root 6.738 16.385 -3.51586 -160.411 81.2142 -166.895
lfemur -16.938 1.05651 -19.3187
ltibia 44.4042 -0 0
lfoot -32.1268 11.5123 0.00235244
ltoes 5.63611 -0 0
rfemur -50.0836 -12.2527 14.7979
rtibia 50.5498 -0 0
rfoot 9.27759 6.11309 -0.037473
rtoes -27.5352 0 0
lowerback 5.87619 -0.8287 -3.47246
upperback 2.21164 -1.17908 2.92666
thorax -0.865277 -0.585269 5.0521
lowerneck -5.4394 -13.2984 -3.90067
upperneck 11.3153 -18.1349 5.55383
head 5.16317 -8.70882 1.10399
lclavicle 2.76311e-14 -8.74653e-15 0
lhumerus -35.0962 -21.0501 90.5942
lradius 54.5874 -0 0
lwrist 23.9262 0 0
lhand -20.6268 -3.32371 0.00517143
lfingers 7.12502 -0 0
lthumb 5.73463 26.5762 0.00473537
rclavicle 2.76311e-14 -8.74653e-15 0
rhumerus 27.3227 15.4406 -73.6399
rradius 133.679 -0 0
rwrist -45.8984 0 0
rhand -26.1328 -20.9364 -0.00322659
rfingers 7.12502 -0 0
rthumb 0.417444 -50.9152 -0.00311432
583
root 6.68837 16.3849 -3.50402 -158.359 82.1089 -164.748
lfemur -16.9796 2.04553 -19.2845
ltibia 44.4578 -0 0
lfoot -32.0841 11.627 0.00256631
ltoes 5.10786 -0 0
rfemur -49.5714 -12.1335 14.9244
rtibia 50.7681 -0 0
rfoot 9.03751 6.43833 -0.0408805
rtoes -27.1951 0 0
lowerback 5.7245 -0.869615 -3.69996
upperback 2.18276 -1.24739 2.83694
thorax -0.798578 -0.623095 5.08809
lowerneck -5.44117 -13.2668 -3.88787
upperneck 11.4578 -18.1168 5.6574
head 5.21584 -8.6885 1.12806
lclavicle 2.76311e-14 -8.74653e-15 0
lhumerus -34.1338 -21.6957 90.1677
lradius 54.4815 -0 0
lwrist 24.0045 0 0
lhand -20.4861 -3.24714 0.00564157
lfingers 7.12502 -0 0
lthumb 5.87046 26.6489 0.00516587
rclavicle 2.76311e-14 -8.74653e-15 0
rhumerus 27.0541 15.5084 -73.6004
rradius 133.647 -0 0
rwrist -45.8491 0 0
rhand -26.2062 -20.8448 -0.00351992
rfingers 7.12502 -0 0
rthumb 0.346578 -50.8236 -0.00339745
584
root 6.63874 16.3849 -3.49219 -155.775 82.9904 -162.07
lfemur -17.0207 3.03458 -19.2511
ltibia 44.5113 -0 0
lfoot -32.0414 11.7417 0.00269463
ltoes 4.57961 -0 0
rfemur -49.0591 -12.0156 15.0519
rtibia 50.9864 -0 0
rfoot 8.79741 6.76359 -0.042925
rtoes -26.8549 0 0
lowerback 5.57297 -0.911131 -3.92735
upperback 2.15399 -1.31574 2.74724
thorax -0.731903 -0.660963 5.12404
lowerneck -5.44294 -13.2352 -3.87506
upperneck 11.6003 -18.0989 5.761
head 5.26851 -8.6682 1.15215
lclavicle 2.76311e-14 -8.74653e-15 0
lhumerus -33.1619 -22.3346 89.7276
lradius 54.3756 -0 0
lwrist 24.0828 0 0
lhand -20.3454 -3.17056 0.00592366
lfingers 7.12502 -0 0
lthumb 6.0063 26.7215 0.00542417
rclavicle 2.76311e-14 -8.74653e-15 0
rhumerus 26.7855 15.5764 -73.5612
rradius 133.614 -0 0
rwrist -45.7998 0 0
rhand -26.2796 -20.7531 -0.00369592
rfingers 7.12502 -0 0
rthumb 0.275712 -50.7321 -0.00356733
585
root 6.58911 16.3848 -3.48036 -152.445 83.8529 -158.646
lfemur -17.0612 4.02366 -19.2183
ltibia 44.5648 -0 0
lfoot -31.9987 11.8564 0.0027374
ltoes 4.05136 -0 0
rfemur -48.5467 -11.8987 15.1805
rtibia 51.2047 -0 0
rfoot 8.5573 7.08885 -0.0436066
rtoes -26.5147 0 0
lowerback 5.4216 -0.953249 -4.15464
upperback 2.12532 -1.38414 2.65758
thorax -0.665251 -0.698873 5.15994
lowerneck -5.44469 -13.2036 -3.86227
upperneck 11.7427 -18.0813 5.86465
head 5.32119 -8.64791 1.17626
lclavicle 2.76311e-14 -8.74653e-15 0
lhumerus -32.1802 -22.9664 89.2737
lradius 54.2697 -0 0
lwrist 24.1611 0 0
lhand -20.2047 -3.09397 0.00601769
lfingers 7.12502 -0 0
lthumb 6.14213 26.7942 0.00551028
rclavicle 2.76311e-14 -8.74653e-15 0
rhumerus 26.5168 15.6447 -73.5223
rradius 133.582 -0 0
rwrist -45.7504 0 0
rhand -26.3529 -20.6615 -0.00375459
rfingers 7.12502 -0 0
rthumb 0.204846 -50.6405 -0.00362395
586
root 6.53948 16.3847 -3.46853 -148.036 84.6873 -154.142
lfemur -17.1012 5.01275 -19.1861
ltibia 44.6183 -0 0
lfoot -31.9559 11.9712 0.00269463
ltoes 3.5231 -0 0
rfemur -48.0343 -11.7829 15.31
rtibia 51.423 -0 0
rfoot 8.3172 7.41411 -0.042925
rtoes -26.1745 0 0
lowerback 5.2704 -0.995966 -4.38181
upperback 2.09676 -1.45258 2.56795
thorax -0.598622 -0.736825 5.1958
lowerneck -5.44644 -13.172 -3.84947
upperneck 11.8852 -18.0639 5.96832
head 5.37388 -8.62765 1.20039
lclavicle 2.76311e-14 -8.74653e-15 0
lhumerus -31.1884 -23.591 88.806
lradius 54.1639 -0 0
lwrist 24.2394 0 0
lhand -20.064 -3.01739 0.00592366
lfingers 7.12502 -0 0
lthumb 6.27797 26.8668 0.00542417
rclavicle 2.76311e-14 -8.74653e-15 0
rhumerus 26.2481 15.713 -73.4838
rradius 133.55 -0 0
rwrist -45.7011 0 0
rhand -26.4263 -20.5699 -0.00369592
rfingers 7.12502 -0 0
rthumb 0.13398 -50.5489 -0.00356733
587
root 6.48985 16.3847 -3.45669 -142.022 85.4779 -148.034
lfemur -17.1408 6.00187 -19.1546
ltibia 44.6718 -0 0
lfoot -31.9132 12.0859 0.00256631
ltoes 2.99485 -0 0
rfemur -47.5219 -11.6683 15.4406
rtibia 51.6413 -0 0
rfoot 8.0771 7.73937 -0.0408805
rtoes -25.8344 0 0
lowerback 5.11937 -1.03928 -4.60888
upperback 2.06831 -1.52107 2.47835
thorax -0.532017 -0.774818 5.23161
lowerneck -5.44819 -13.1404 -3.83668
upperneck 12.0278 -18.0468 6.07204
head 5.42657 -8.60742 1.22453
lclavicle 2.76311e-14 -8.74653e-15 0
lhumerus -30.1862 -24.2079 88.3242
lradius 54.058 -0 0
lwrist 24.3177 0 0
lhand -19.9233 -2.94081 0.00564157
lfingers 7.12502 -0 0
lthumb 6.41381 26.9394 0.00516587
rclavicle 2.76311e-14 -8.74653e-15 0
rhumerus 25.9794 15.7816 -73.4456
rradius 133.517 -0 0
rwrist -45.6517 0 0
rhand -26.4997 -20.4782 -0.00351992
rfingers 7.12502 -0 0
rthumb 0.0631136 -50.4574 -0.00339745
588
root 6.44022 16.3846 -3.44486 -133.588 86.1972 -139.505
lfemur -17.1798 6.99101 -19.1238
ltibia 44.7254 -0 0
lfoot -31.8705 12.2006 0.00235244
ltoes 2.4666 -0 0
rfemur -47.0094 -11.5549 15.5721
rtibia 51.8596 -0 0
rfoot 7.83702 8.06461 -0.037473
rtoes -25.4942 0 0
lowerback 4.96851 -1.0832 -4.83583
upperback 2.03996 -1.58961 2.38878
thorax -0.465434 -0.812853 5.26738
lowerneck -5.44992 -13.1088 -3.82388
upperneck 12.1703 -18.0299 6.17578
head 5.47927 -8.5872 1.24869
lclavicle 2.76311e-14 -8.74653e-15 0
lhumerus -29.1735 -24.817 87.8282
lradius 53.9521 -0 0
lwrist 24.396 0 0
lhand -19.7826 -2.86424 0.00517143
lfingers 7.12502 -0 0
lthumb 6.54964 27.0121 0.00473537
rclavicle 2.76311e-14 -8.74653e-15 0
rhumerus 25.7106 15.8503 -73.4076
rradius 133.485 -0 0
rwrist -45.6023 0 0
rhand -26.5731 -20.3866 -0.00322659
rfingers 7.12502 -0 0
rthumb -0.0077521 -50.3658 -0.00311432
